<svg xmlns="http://www.w3.org/2000/svg" xmlns:xlink="http://www.w3.org/1999/xlink" version="1.1" x="0px" y="0px" viewBox="0 0 100 125" enable-background="new 0 0 100 100" xml:space="preserve"><path d="M92.093,43.128L79.092,41.07c-0.563-1.839-1.3-3.602-2.185-5.274c0.168-0.148,0.326-0.313,0.465-0.505l7.821-10.761  c1.027-1.421,0.784-3.514-0.554-4.649l-4.519-4.522c-1.136-1.335-3.23-1.579-4.647-0.549L64.71,22.631  c-0.19,0.139-0.356,0.296-0.504,0.464c-1.673-0.885-3.435-1.621-5.273-2.185L56.872,7.908c-0.274-1.73-1.928-3.035-3.676-2.898  h-6.392c-1.748-0.137-3.402,1.167-3.676,2.898L41.069,20.91c-1.839,0.563-3.601,1.3-5.273,2.185  c-0.148-0.168-0.313-0.327-0.505-0.466l-10.763-7.82c-1.418-1.029-3.511-0.783-4.648,0.55l-4.52,4.52  c-1.334,1.138-1.581,3.23-0.55,4.647l7.82,10.764c0.139,0.192,0.297,0.357,0.466,0.505c-0.885,1.673-1.622,3.435-2.186,5.274  L7.908,43.129c-1.73,0.274-3.037,1.928-2.899,3.675v6.392c-0.137,1.75,1.168,3.401,2.899,3.675l13.004,2.061  c0.564,1.838,1.3,3.6,2.185,5.272c-0.169,0.146-0.327,0.312-0.466,0.505l-7.821,10.764c-1.029,1.417-0.785,3.512,0.55,4.649  l4.52,4.521c1.139,1.335,3.231,1.579,4.648,0.548l10.763-7.819c0.192-0.14,0.358-0.299,0.507-0.468  c1.672,0.885,3.434,1.621,5.272,2.185L43.13,92.09c0.275,1.73,1.928,3.039,3.676,2.899h6.393c1.749,0.14,3.399-1.167,3.675-2.897  l2.059-13.004c1.839-0.563,3.6-1.299,5.271-2.184c0.148,0.169,0.314,0.328,0.506,0.467l10.762,7.821  c1.419,1.029,3.513,0.785,4.649-0.552l4.523-4.519c1.334-1.138,1.576-3.23,0.548-4.649L77.37,64.711  c-0.139-0.192-0.297-0.356-0.465-0.505c0.885-1.673,1.621-3.435,2.186-5.274l13-2.059c1.732-0.277,3.039-1.929,2.898-3.678  l0.002-6.393C95.13,45.053,93.823,43.403,92.093,43.128z M50.001,65.528c-8.577,0-15.53-6.953-15.53-15.53  c0-8.577,6.953-15.53,15.53-15.53c8.577,0,15.53,6.953,15.53,15.53C65.531,58.575,58.578,65.528,50.001,65.528z"/><text x="0" y="115" fill="#000000" font-size="5px" font-weight="bold" font-family="'Helvetica Neue', Helvetica, Arial-Unicode, Arial, Sans-serif">Created by José Campos</text><text x="0" y="120" fill="#000000" font-size="5px" font-weight="bold" font-family="'Helvetica Neue', Helvetica, Arial-Unicode, Arial, Sans-serif">from the Noun Project</text></svg>