<svg xmlns="http://www.w3.org/2000/svg" xmlns:xlink="http://www.w3.org/1999/xlink" version="1.1" x="0px" y="0px" viewBox="0 0 150 187.5" enable-background="new 0 0 150 150" xml:space="preserve"><g><path d="M75,56.25c-10.364,0-18.75,8.386-18.75,18.75l0,0c0,10.364,8.386,18.75,18.75,18.75S93.75,85.364,93.75,75l0,0   C93.75,64.636,85.364,56.25,75,56.25z M75,89.062c-7.773,0-14.062-6.29-14.062-14.062l0,0c0-7.773,6.289-14.062,14.062-14.062   S89.062,67.228,89.062,75l0,0C89.062,82.773,82.773,89.062,75,89.062z"/><path d="M110.702,63.507c-0.626-1.947-1.409-3.822-2.329-5.616l11.639-17.475l-1.916-1.914l-1.398-1.4l-1.9-1.898l-1.9-1.9   l-1.398-1.398l-1.914-1.916L92.109,41.627c-1.794-0.92-3.669-1.703-5.616-2.329l-4.12-20.548h-2.707h-1.979H75h-2.687h-1.979   h-2.707l-4.12,20.548c-1.947,0.626-3.821,1.408-5.615,2.329L40.417,29.988l-1.915,1.915l-1.399,1.399l-1.899,1.899l-1.899,1.9   l-1.399,1.398l-1.915,1.915l11.638,17.475c-0.92,1.794-1.704,3.669-2.329,5.616l-20.548,4.12v2.707v1.979V75v2.687v1.979v2.707   l20.548,4.12c0.625,1.946,1.408,3.821,2.329,5.614l-11.639,17.477l1.915,1.914l1.399,1.4l1.899,1.898l1.9,1.9l1.398,1.398   l1.915,1.916l17.475-11.639c1.794,0.92,3.669,1.703,5.616,2.329l4.12,20.548h2.707h1.979H75h2.687h1.979h2.707l4.12-20.548   c1.947-0.626,3.821-1.408,5.615-2.329l17.476,11.639l1.914-1.915l1.4-1.399l1.898-1.899l1.9-1.9l1.398-1.398l1.916-1.915   l-11.639-17.475c0.92-1.794,1.703-3.669,2.329-5.616l20.548-4.12v-2.707v-1.979V75v-2.687v-1.979v-2.707L110.702,63.507z    M126.562,75v3.639l-14.654,2.977l-4.987,1.014l-0.024,0.074l-1.566,4.837c-0.055,0.136-0.111,0.271-0.168,0.405l-1.978,3.871   l-0.196,0.383l2.795,4.22l8.272,12.491l-2.573,2.573l-2.572,2.572l-12.491-8.272l-4.22-2.794l-0.38,0.194l-3.881,1.982   c-0.128,0.055-0.257,0.107-0.385,0.16l-4.861,1.574l-0.063,0.021l-1.013,4.986l-2.978,14.655H75h-3.639l-2.978-14.655l-1.013-4.986   l-0.081-0.026l-4.824-1.562c-0.138-0.057-0.276-0.113-0.414-0.172l-3.866-1.975l-0.385-0.197l-4.221,2.795l-12.491,8.272   l-2.573-2.573l-2.572-2.572l8.272-12.491l2.794-4.22l-0.199-0.389l-1.973-3.863c-0.056-0.131-0.11-0.262-0.165-0.394l-1.575-4.863   l-0.02-0.062l-4.987-1.014l-14.655-2.977V75v-3.639l14.655-2.977l4.987-1.014l0.024-0.074l1.566-4.838   c0.056-0.135,0.111-0.27,0.168-0.403l1.978-3.872l0.196-0.383l-2.795-4.22L35.944,41.09l2.573-2.573l2.573-2.572l12.491,8.272   l4.22,2.794l0.38-0.194l3.882-1.982c0.127-0.055,0.255-0.107,0.383-0.16l4.862-1.574l0.063-0.021l1.013-4.986l2.978-14.655H75   h3.639l2.978,14.655l1.013,4.986l0.081,0.026l4.825,1.562c0.135,0.055,0.27,0.11,0.404,0.168l3.883,1.983l0.377,0.192l4.221-2.795   l12.49-8.272l2.572,2.573l2.572,2.572l-8.271,12.49l-2.795,4.221l0.191,0.374l1.99,3.896c0.053,0.125,0.104,0.25,0.156,0.375   l1.574,4.864l0.021,0.062l4.987,1.014l14.654,2.977V75z"/></g><text x="0" y="165" fill="#000000" font-size="5px" font-weight="bold" font-family="'Helvetica Neue', Helvetica, Arial-Unicode, Arial, Sans-serif">Created by Ricardo Cardoso</text><text x="0" y="170" fill="#000000" font-size="5px" font-weight="bold" font-family="'Helvetica Neue', Helvetica, Arial-Unicode, Arial, Sans-serif">from the Noun Project</text></svg>